<?xml version="1.0" encoding="UTF-8"?>
<svg id="Calque_1" data-name="Calque 1" xmlns="http://www.w3.org/2000/svg" viewBox="0 0 302.81 613.53">
  <defs>
    
  </defs>
  <g>
    <path class="cls-1" d="M51.6,164.62c0-.12.18-.27.55-.46s.83-.41,1.38-.67,1.15-.55,1.78-.89,1.23-.7,1.78-1.11,1.01-.85,1.38-1.33.55-1,.55-1.56c-.42,0-.83.03-1.22.08s-.78.11-1.17.17-.78.11-1.18.17-.81.08-1.23.08-.95-.02-1.55-.07-1.22-.13-1.86-.25-1.28-.27-1.9-.47-1.18-.44-1.67-.75-.89-.67-1.2-1.08-.46-.91-.46-1.47.13-1.22.39-1.93.62-1.46,1.07-2.25.99-1.58,1.6-2.39,1.27-1.59,1.98-2.35,1.44-1.47,2.21-2.14,1.52-1.25,2.28-1.75,1.49-.89,2.2-1.18,1.36-.43,1.96-.43c.25,0,.57.03.98.08s.86.13,1.34.25.97.25,1.46.42.94.37,1.34.61.73.5.98.79.38.62.38.98c0,.18-.04.45-.13.83s-.21.82-.36,1.31-.33,1.03-.54,1.6-.43,1.15-.69,1.71-.52,1.12-.79,1.64-.56,1-.84,1.41-.57.74-.86.98-.57.36-.83.36c-.2,0-.46-.03-.77-.08s-.65-.13-1-.23-.71-.22-1.07-.36-.69-.3-.98-.47-.52-.37-.7-.58-.27-.44-.27-.69v-.23l1.44-3.13v-.72c-.36.2-.76.49-1.2.87s-.87.82-1.32,1.32-.88,1.04-1.29,1.62-.79,1.17-1.12,1.76-.59,1.17-.78,1.74-.29,1.09-.29,1.57c0,.13.05.2.14.22s.21.03.33.03c.6,0,1.2-.06,1.79-.18s1.2-.26,1.8-.41,1.2-.29,1.8-.41,1.2-.18,1.79-.18c.28,0,.67.02,1.15.06s1.02.11,1.59.21,1.15.23,1.73.39,1.11.35,1.59.58.87.5,1.17.81.45.67.45,1.06c0,.56-.16,1.14-.49,1.74s-.76,1.18-1.31,1.75-1.16,1.11-1.85,1.62-1.4.96-2.13,1.34-1.44.68-2.14.91-1.34.33-1.9.33c-.08,0-.27,0-.56,0s-.64-.02-1.03-.04-.81-.05-1.24-.11-.83-.12-1.2-.21-.67-.2-.91-.33-.36-.3-.36-.5Z"></path>
    <path class="cls-1" d="M68.21,158.6c0-1.44.04-2.84.11-4.19s.11-2.75.11-4.19v-2.65c-.12-.2-.34-.36-.66-.49s-.69-.25-1.1-.35-.83-.21-1.27-.32-.84-.23-1.21-.38-.67-.33-.91-.54-.36-.47-.36-.79c2.34-.54,4.46-1.02,6.36-1.44.81-.18,1.61-.35,2.41-.53s1.52-.33,2.17-.47,1.2-.24,1.65-.33.74-.12.85-.12c.25,0,.57.03.98.1s.8.16,1.19.29.72.3,1.01.51.43.47.43.77-.09.57-.27.76-.41.35-.69.46-.58.2-.91.26-.64.13-.95.2-.57.16-.8.26-.38.26-.47.46c-.15.33-.26.85-.33,1.56s-.12,1.54-.16,2.48-.06,1.95-.08,3.04-.05,2.18-.1,3.27-.12,2.14-.21,3.15-.23,1.9-.41,2.67-.42,1.39-.72,1.85-.67.69-1.12.69c-.96,0-1.74-.14-2.33-.43s-1.05-.69-1.38-1.22-.55-1.16-.67-1.9-.18-1.56-.18-2.46Z"></path>
    <path class="cls-1" d="M77.91,158.13v-3.83c0-.2,0-.56-.03-1.07s-.02-1.1,0-1.77.06-1.35.12-2.06.18-1.36.33-1.95.38-1.08.66-1.46.64-.57,1.07-.57c.2,0,.45.02.76.06s.62.1.96.18.67.17,1.01.29.64.25.91.41.49.34.66.54.25.42.25.67c0,.67-.05,1.33-.15,2s-.21,1.32-.33,1.98-.23,1.32-.33,1.98-.15,1.32-.15,1.98v3.36c0,.12,0,.25,0,.39s.03.27.08.39.12.22.22.3.24.12.41.12c.36,0,.71-.18,1.04-.54s.64-.84.93-1.44.57-1.3.83-2.08.5-1.6.71-2.45.41-1.7.59-2.55.33-1.64.46-2.37.23-1.38.32-1.94.14-.98.18-1.25c0-.13.05-.21.15-.25s.21-.06.33-.06c.11,0,.22.01.33.04l.14.04c.96,0,1.78.18,2.45.54s1.24.84,1.69,1.46.81,1.33,1.06,2.15.45,1.7.56,2.63.18,1.89.2,2.88.01,1.96-.02,2.9-.07,1.84-.11,2.7-.07,1.61-.07,2.27c0,.29-.07.56-.2.8s-.31.44-.52.61-.44.29-.69.38-.5.13-.75.13c-.43,0-.81-.06-1.12-.19s-.59-.29-.81-.49-.41-.41-.55-.63-.27-.43-.38-.63-.19-.36-.26-.49-.15-.19-.23-.19h-.25c-.23.29-.51.6-.83.91s-.67.6-1.05.85-.77.46-1.19.62-.83.25-1.26.25c-1.14,0-2.18-.13-3.13-.4s-1.78-.67-2.48-1.21-1.27-1.22-1.71-2.03-.72-1.76-.83-2.84Z"></path>
    <path class="cls-1" d="M98.93,160.05c0-.77.04-1.56.11-2.37s.16-1.62.25-2.43.17-1.61.25-2.42.11-1.6.11-2.38v-1.44c-.16-.25-.4-.45-.71-.61s-.65-.3-1.03-.43-.76-.25-1.15-.38-.75-.27-1.06-.43-.58-.37-.78-.61-.31-.54-.31-.91c0-.33.14-.64.41-.93s.65-.57,1.12-.82,1.01-.49,1.62-.7,1.25-.41,1.92-.58,1.34-.32,2.02-.45,1.32-.24,1.92-.33,1.15-.16,1.63-.2.86-.07,1.12-.07c.56,0,1.23.06,2,.19s1.58.32,2.42.57,1.67.56,2.49.92,1.56.78,2.21,1.24,1.17.97,1.57,1.52.6,1.15.6,1.79c0,.45-.12,1.03-.36,1.77s-.57,1.54-.98,2.42-.91,1.81-1.48,2.79-1.18,1.95-1.83,2.9-1.33,1.86-2.04,2.72-1.42,1.62-2.12,2.29-1.39,1.19-2.06,1.57-1.29.58-1.86.58c-.35,0-.75-.06-1.19-.18s-.88-.3-1.33-.52-.88-.49-1.29-.79-.79-.64-1.11-.99-.58-.73-.78-1.12-.3-.79-.3-1.19ZM106.37,154.3l.49-.49c.41-.68.8-1.34,1.18-1.97.32-.55.64-1.11.96-1.67s.57-1.03.75-1.39c.12-.25.25-.49.39-.73s.27-.49.39-.75.22-.52.3-.8.12-.56.12-.85c0-.18-.01-.31-.04-.41s-.08-.17-.14-.22-.14-.07-.23-.08-.19,0-.31,0-.34,0-.66.03-.69.05-1.1.09-1.03.22-1.87.54-.99,3.14-.45,8.46l.23.25Z"></path>
    <path class="cls-1" d="M122.89,164.84v-.95c0-.6.09-1.19.26-1.77s.37-1.15.58-1.72.4-1.14.58-1.71.26-1.16.26-1.76c0-.48-.13-1.02-.4-1.62s-.61-1.22-1.04-1.88-.9-1.33-1.42-2.02-1.04-1.37-1.56-2.02-1-1.28-1.45-1.88-.82-1.14-1.1-1.62v-.47c0-.13.02-.24.06-.34s.18-.15.41-.15c.71,0,1.38.17,1.99.52s1.17.78,1.68,1.29.98,1.07,1.41,1.67.82,1.15,1.19,1.67.7.95,1.01,1.29.61.52.89.52c.18,0,.36-.15.55-.46s.39-.7.6-1.2.42-1.05.66-1.69.48-1.28.75-1.94.54-1.31.84-1.94.62-1.2.96-1.69.71-.89,1.1-1.2.81-.46,1.26-.46c.36,0,.72.07,1.07.2s.69.31,1,.52.61.45.87.7.48.5.66.74v.25s-.09.29-.28.73-.44,1.01-.76,1.72-.7,1.53-1.14,2.47-.91,1.93-1.42,2.97-1.03,2.11-1.58,3.2-1.1,2.15-1.65,3.19-1.09,2.01-1.62,2.93-1.02,1.71-1.47,2.4-.86,1.23-1.21,1.63-.64.6-.85.6c-.18,0-.34,0-.5,0s-.3-.03-.44-.08-.26-.12-.39-.22-.24-.24-.36-.41Z"></path>
    <path class="cls-1" d="M145.57,164.84c0-1.86-.04-3.66-.11-5.39s-.19-3.44-.37-5.13-.42-3.39-.73-5.1-.71-3.45-1.19-5.25v-.25l.25-.47h.72c.93,0,1.7.07,2.31.21s1.12.33,1.5.58.68.54.89.88.37.7.48,1.09.21.79.26,1.22.14.86.25,1.28.25.85.43,1.26.45.8.82,1.16h.25l.25-.25c.36-.73.73-1.5,1.1-2.31s.76-1.63,1.16-2.46.83-1.63,1.28-2.42.95-1.51,1.49-2.18c.13-.12.23-.21.3-.27s.13-.11.19-.14.12-.05.19-.05.16,0,.28,0c.36,0,.74.06,1.13.18s.75.28,1.08.49.6.46.82.76.33.62.33.98c0,.96-.16,1.92-.47,2.87s-.69,1.9-1.12,2.85-.89,1.88-1.34,2.8-.84,1.84-1.14,2.74c-.12.36-.24.87-.37,1.51s-.27,1.37-.42,2.18-.32,1.67-.5,2.58-.38,1.82-.6,2.72-.46,1.77-.72,2.59-.55,1.55-.87,2.18-.67,1.13-1.05,1.5-.79.56-1.24.56c-.84,0-1.58-.14-2.21-.42s-1.17-.67-1.62-1.16-.81-1.08-1.09-1.75-.48-1.4-.6-2.19Z"></path>
    <path class="cls-1" d="M158.89,162.58v-2.5c0-1.07.02-2.15.05-3.25s.11-2.21.21-3.31.25-2.21.44-3.32.43-2.19.74-3.26l.47-.18c.42,0,.9.08,1.43.23s1.05.35,1.54.59.93.51,1.32.8.64.59.76.88v1.95c0,1.11-.08,2.17-.25,3.17s-.4,1.99-.68,2.96-.61,1.95-.99,2.94-.78,2.02-1.2,3.08c-.12.28-.29.48-.51.59s-.45.17-.69.17c-.29,0-.6-.03-.91-.08s-.6-.14-.85-.26-.46-.28-.62-.47-.25-.44-.25-.73ZM161,142.82c.04-.39.11-.78.21-1.18s.41-.91.92-1.55,1.32-.83,2.43-.59,1.83.69,2.15,1.34.53,1.27.6,1.83-.04,1.17-.32,1.83-.63,1.18-1.05,1.56c-.12.09-.29.16-.51.2s-.45.06-.69.06c-2.99.09-4.24-1.08-3.74-3.52Z"></path>
    <path class="cls-1" d="M175.7,164.12c0-.45.1-.86.3-1.25s.45-.76.76-1.12.63-.72.98-1.06.68-.69.98-1.05.56-.71.76-1.08.3-.75.3-1.15c0-.12-.09-.23-.28-.35s-.43-.23-.72-.34-.61-.21-.95-.3-.66-.17-.96-.24-.56-.12-.77-.16-.35-.05-.4-.05c-.23,0-.42.12-.55.35s-.24.54-.32.92-.13.81-.18,1.3-.09.98-.15,1.49-.14,1.01-.25,1.5-.25.93-.45,1.31-.45.69-.76.92-.71.35-1.19.35c-.6,0-1.1-.09-1.49-.28s-.72-.44-.98-.75-.44-.67-.56-1.09-.21-.86-.25-1.32-.07-.93-.07-1.42v-3.7c0-.7,0-1.4.03-2.1s.04-1.45.07-2.23.07-1.69.13-2.71l.25-.25c.06,0,.14-.01.25-.04s.23-.05.35-.08.24-.06.34-.08.19-.04.25-.04c-.08-.05-.22-.11-.41-.2s-.42-.19-.67-.32-.51-.26-.78-.41-.51-.31-.73-.47-.4-.33-.54-.5-.22-.34-.22-.5c0-.45.16-.87.49-1.27s.75-.79,1.27-1.14,1.11-.68,1.78-.98,1.32-.54,1.98-.75,1.28-.37,1.87-.48,1.09-.18,1.49-.18c.36,0,.83.04,1.4.12s1.17.21,1.81.38,1.28.38,1.92.64,1.23.57,1.75.92.95.76,1.27,1.21.49.96.49,1.52c0,.48-.1.95-.3,1.41s-.42.91-.66,1.35-.46.9-.66,1.35-.3.93-.3,1.41c0,.28.15.52.45.72s.67.39,1.11.56.92.35,1.44.53,1,.38,1.44.6.81.49,1.11.8.45.68.45,1.12c0,.52-.13,1.06-.4,1.63s-.61,1.15-1.04,1.74-.91,1.16-1.44,1.72-1.07,1.1-1.6,1.6-1.04.96-1.53,1.38-.89.76-1.2,1.05c-.29.23-.55.42-.77.54s-.43.22-.62.28-.39.09-.58.11-.41.02-.66.02-.52-.02-.85-.05-.65-.11-.95-.21-.55-.25-.76-.44-.32-.43-.32-.74ZM170.9,148.29s.08.11.25.24.38.27.64.43.54.33.84.51.6.34.89.48.54.27.76.36.38.14.46.14c.16,0,.33-.1.49-.29s.33-.44.49-.75.32-.65.46-1.03.26-.76.37-1.12.19-.72.25-1.05.1-.59.1-.79c0-.13-.05-.2-.15-.22s-.21-.03-.34-.03c-.54,0-1.04.13-1.5.39s-.91.56-1.34.9-.87.69-1.3,1.04-.89.62-1.37.79Z"></path>
    <path class="cls-1" d="M186.89,156.21v-.25l.25-.23c.96-.06,1.74-.26,2.33-.62s1.05-.82,1.38-1.41.55-1.28.67-2.07.18-1.68.18-2.64v-1.2c-.12-.16-.31-.32-.59-.47s-.58-.3-.91-.45-.68-.31-1.05-.47-.69-.33-.98-.5-.54-.37-.73-.57-.29-.42-.29-.66c0-.25.17-.48.52-.7s.79-.43,1.32-.63,1.12-.39,1.76-.56,1.25-.33,1.84-.46,1.11-.24,1.56-.33.76-.16.91-.19c.12-.05.35-.1.69-.17s.75-.13,1.21-.21.95-.16,1.46-.24,1-.16,1.46-.24.87-.15,1.21-.21.58-.11.69-.15c.06,0,.21-.02.44-.07s.49-.1.76-.17.52-.12.76-.17.38-.07.44-.07h.25c.18,0,.35.04.53.13s.33.21.47.35.24.32.33.53.12.43.12.68c0,.4-.13.74-.4,1.03s-.6.54-1.02.76-.88.41-1.38.58-1,.33-1.48.47-.92.3-1.32.46-.7.34-.9.54c-.12.12-.25.36-.39.72s-.28.79-.43,1.28-.28,1.03-.41,1.6-.25,1.13-.35,1.68-.19,1.05-.25,1.52-.09.84-.09,1.12c.48,0,.95-.09,1.41-.26s.91-.37,1.35-.58.9-.4,1.35-.58.93-.26,1.41-.26c.25,0,.46.08.63.24s.33.35.45.57.21.46.27.71.09.47.09.64c0,.63-.21,1.18-.62,1.65s-.93.87-1.56,1.21-1.29.63-2.02.88-1.4.47-2.02.67-1.14.38-1.56.55-.62.35-.62.55v2.64c0,.12.03.21.08.28s.12.12.19.15.16.05.24.05.15,0,.21,0c.48,0,.94-.08,1.39-.23s.88-.35,1.3-.58.84-.49,1.25-.76.82-.52,1.22-.76.81-.43,1.23-.58.85-.23,1.29-.23c.3,0,.57.08.81.24s.43.36.6.6.29.5.38.78.13.54.13.79v.72c-.42.48-.87.94-1.35,1.37s-1,.81-1.55,1.14-1.14.59-1.78.78-1.31.29-2.04.29c-.52,0-1.07-.06-1.67-.19s-1.2-.31-1.81-.54-1.2-.52-1.78-.85-1.1-.7-1.59-1.11-.91-.85-1.27-1.33-.61-.98-.76-1.49c-.2-.64-.4-1.14-.59-1.49s-.38-.62-.57-.81-.38-.34-.58-.43-.41-.2-.62-.33-.45-.3-.69-.52-.51-.55-.79-.98Z"></path>
    <path class="cls-1" d="M212.17,164.62c0-.12.18-.27.55-.46s.83-.41,1.38-.67,1.15-.55,1.78-.89,1.23-.7,1.78-1.11,1.01-.85,1.38-1.33.55-1,.55-1.56c-.42,0-.83.03-1.22.08s-.78.11-1.17.17-.78.11-1.18.17-.81.08-1.23.08-.95-.02-1.55-.07-1.22-.13-1.86-.25-1.28-.27-1.9-.47-1.18-.44-1.67-.75-.89-.67-1.2-1.08-.46-.91-.46-1.47.13-1.22.39-1.93.62-1.46,1.07-2.25.99-1.58,1.6-2.39,1.27-1.59,1.98-2.35,1.44-1.47,2.21-2.14,1.52-1.25,2.28-1.75,1.49-.89,2.2-1.18,1.36-.43,1.96-.43c.25,0,.57.03.98.08s.86.13,1.34.25.97.25,1.46.42.94.37,1.34.61.73.5.98.79.38.62.38.98c0,.18-.04.45-.13.83s-.21.82-.36,1.31-.33,1.03-.54,1.6-.43,1.15-.69,1.71-.52,1.12-.79,1.64-.56,1-.84,1.41-.57.74-.86.98-.57.36-.83.36c-.2,0-.46-.03-.77-.08s-.65-.13-1-.23-.71-.22-1.07-.36-.69-.3-.98-.47-.52-.37-.7-.58-.27-.44-.27-.69v-.23l1.44-3.13v-.72c-.36.2-.76.49-1.2.87s-.87.82-1.32,1.32-.88,1.04-1.29,1.62-.79,1.17-1.12,1.76-.59,1.17-.78,1.74-.29,1.09-.29,1.57c0,.13.05.2.14.22s.21.03.33.03c.6,0,1.2-.06,1.79-.18s1.2-.26,1.8-.41,1.2-.29,1.8-.41,1.2-.18,1.79-.18c.28,0,.67.02,1.15.06s1.02.11,1.59.21,1.15.23,1.73.39,1.11.35,1.59.58.87.5,1.17.81.45.67.45,1.06c0,.56-.16,1.14-.49,1.74s-.76,1.18-1.31,1.75-1.16,1.11-1.85,1.62-1.4.96-2.13,1.34-1.44.68-2.14.91-1.34.33-1.9.33c-.08,0-.27,0-.56,0s-.64-.02-1.03-.04-.81-.05-1.24-.11-.83-.12-1.2-.21-.67-.2-.91-.33-.36-.3-.36-.5Z"></path>
  </g>
  <g>
    <path class="cls-1" d="M9.99,603.95c0-.2.31-.45.92-.76s1.38-.68,2.3-1.11c.92-.43,1.91-.92,2.97-1.48,1.06-.56,2.06-1.17,2.97-1.85.92-.67,1.68-1.41,2.3-2.21s.92-1.67.92-2.61c-.7,0-1.38.04-2.04.13-.65.09-1.3.18-1.95.28s-1.3.19-1.96.28c-.66.09-1.35.13-2.05.13s-1.58-.04-2.58-.12-2.03-.21-3.11-.41c-1.07-.2-2.13-.45-3.16-.78-1.04-.32-1.96-.74-2.78-1.25s-1.48-1.11-1.99-1.8c-.51-.69-.76-1.51-.76-2.45s.22-2.03.64-3.22c.43-1.19,1.03-2.44,1.79-3.75s1.65-2.64,2.67-3.98c1.02-1.35,2.11-2.65,3.3-3.91,1.18-1.26,2.41-2.45,3.68-3.56,1.27-1.11,2.53-2.08,3.79-2.92s2.48-1.48,3.66-1.96c1.18-.48,2.27-.72,3.27-.72.41,0,.96.04,1.64.13.68.09,1.43.22,2.23.41.8.19,1.61.42,2.43.7s1.57.62,2.24,1.01,1.22.83,1.64,1.32c.42.49.63,1.04.63,1.64,0,.29-.07.76-.22,1.39s-.35,1.36-.6,2.18c-.25.82-.55,1.71-.89,2.67-.34.96-.72,1.91-1.14,2.86-.42.95-.86,1.86-1.32,2.74-.46.88-.93,1.66-1.41,2.34-.48.68-.96,1.23-1.44,1.63-.48.4-.94.6-1.39.6-.33,0-.76-.04-1.29-.13s-1.08-.21-1.67-.38-1.18-.37-1.79-.6c-.61-.23-1.15-.5-1.63-.79-.48-.29-.87-.62-1.17-.97-.3-.35-.45-.73-.45-1.14v-.38l2.4-5.21v-1.2c-.61.33-1.27.82-1.99,1.45-.72.63-1.46,1.37-2.2,2.2-.74.83-1.46,1.73-2.15,2.7-.69.97-1.31,1.94-1.86,2.93-.55.99-.98,1.95-1.3,2.9s-.48,1.82-.48,2.62c0,.21.08.34.23.37.16.03.34.04.56.04,1,0,1.99-.1,2.99-.31s2-.43,3-.69c1.01-.25,2.01-.48,3-.69s1.99-.31,2.99-.31c.47,0,1.11.03,1.92.1.81.07,1.69.19,2.65.35.96.17,1.92.38,2.89.64s1.85.59,2.65.97c.8.38,1.45.83,1.95,1.35s.75,1.11.75,1.77c0,.94-.27,1.9-.82,2.9-.55,1-1.27,1.97-2.18,2.92s-1.94,1.85-3.09,2.7c-1.15.85-2.33,1.59-3.54,2.23-1.21.63-2.4,1.14-3.57,1.51s-2.23.56-3.16.56c-.14,0-.45,0-.94-.01-.49,0-1.06-.03-1.71-.06-.65-.03-1.34-.09-2.07-.18-.72-.09-1.39-.21-1.99-.35-.61-.15-1.11-.33-1.51-.56-.4-.22-.6-.5-.6-.83Z"></path>
    <path class="cls-1" d="M37.68,593.93c0-2.4.06-4.73.19-6.99.13-2.26.19-4.58.19-6.99v-4.42c-.19-.33-.56-.61-1.1-.82-.54-.21-1.15-.41-1.83-.59-.68-.18-1.39-.35-2.12-.53s-1.41-.39-2.02-.63-1.12-.54-1.52-.89c-.4-.35-.6-.79-.6-1.32,3.91-.9,7.44-1.7,10.61-2.4,1.35-.29,2.69-.59,4.01-.88,1.33-.29,2.53-.55,3.62-.78s2-.41,2.75-.54c.75-.14,1.23-.21,1.42-.21.41,0,.95.05,1.63.16s1.33.27,1.98.48,1.21.5,1.68.85c.48.35.72.78.72,1.29s-.15.95-.45,1.27c-.3.32-.68.58-1.14.76-.46.19-.96.33-1.51.44-.55.11-1.07.22-1.58.34-.51.12-.95.26-1.33.44s-.64.43-.78.76c-.25.55-.44,1.42-.56,2.61s-.21,2.57-.26,4.13-.1,3.25-.13,5.07-.08,3.63-.16,5.45c-.08,1.82-.2,3.56-.35,5.24-.16,1.68-.39,3.16-.69,4.45-.3,1.29-.7,2.32-1.2,3.09s-1.12,1.16-1.86,1.16c-1.6,0-2.9-.24-3.88-.72s-1.75-1.16-2.3-2.04c-.55-.88-.92-1.93-1.11-3.16-.19-1.23-.29-2.6-.29-4.1Z"></path>
    <path class="cls-1" d="M53.85,593.14v-6.39c0-.33-.01-.93-.04-1.79s-.03-1.84,0-2.94.1-2.25.21-3.43c.11-1.18.29-2.27.56-3.25s.63-1.8,1.1-2.43,1.06-.95,1.79-.95c.33,0,.75.03,1.26.1s1.04.17,1.6.29,1.12.29,1.68.48c.57.2,1.07.42,1.52.69.45.26.82.56,1.1.89.28.33.42.7.42,1.11,0,1.11-.08,2.22-.25,3.33-.17,1.1-.35,2.2-.54,3.3-.2,1.09-.38,2.19-.54,3.3-.17,1.1-.25,2.2-.25,3.3v5.6c0,.2,0,.41.01.64,0,.23.05.45.13.64.08.2.2.36.37.5.17.14.4.21.69.21.6,0,1.18-.3,1.73-.89.55-.6,1.06-1.4,1.55-2.4.49-1.01.95-2.16,1.38-3.47.43-1.31.82-2.67,1.19-4.09.36-1.42.69-2.83.98-4.25s.55-2.73.76-3.96c.21-1.22.39-2.3.53-3.24.14-.94.23-1.63.29-2.08,0-.21.08-.36.25-.42.17-.07.35-.1.54-.1.18,0,.36.02.56.06.08.02.16.04.23.06,1.6,0,2.96.3,4.09.89,1.12.6,2.06,1.41,2.81,2.43.75,1.03,1.34,2.22,1.77,3.59.43,1.37.74,2.83.94,4.38.19,1.55.31,3.15.34,4.8s.02,3.26-.03,4.83c-.05,1.57-.11,3.07-.19,4.5-.08,1.43-.12,2.69-.12,3.78,0,.49-.11.93-.34,1.33-.22.4-.51.74-.86,1.01s-.74.48-1.16.63c-.42.15-.83.22-1.25.22-.72,0-1.35-.11-1.88-.32s-.98-.49-1.35-.82c-.37-.33-.68-.68-.92-1.05-.24-.37-.45-.72-.63-1.05s-.32-.61-.44-.82-.24-.32-.38-.32h-.41c-.39.49-.85,1-1.39,1.52-.54.53-1.12,1-1.74,1.42-.63.42-1.28.77-1.98,1.04-.69.27-1.39.41-2.09.41-1.89,0-3.63-.22-5.21-.67s-2.96-1.12-4.13-2.02-2.12-2.03-2.86-3.38-1.2-2.93-1.39-4.73Z"></path>
    <path class="cls-1" d="M88.89,596.33c0-1.29.06-2.61.19-3.96.13-1.35.26-2.7.41-4.04s.28-2.69.41-4.03c.13-1.34.19-2.66.19-3.97v-2.4c-.27-.41-.67-.75-1.19-1.01-.52-.26-1.09-.5-1.71-.72-.62-.21-1.26-.42-1.92-.63-.65-.21-1.25-.44-1.77-.72s-.96-.61-1.3-1.01c-.34-.4-.51-.9-.51-1.51,0-.55.23-1.06.69-1.55.46-.49,1.08-.94,1.86-1.36.78-.42,1.68-.81,2.7-1.17,1.02-.36,2.08-.68,3.19-.97s2.24-.53,3.37-.75,2.2-.4,3.21-.54c1.01-.15,1.91-.26,2.71-.34.8-.08,1.43-.12,1.88-.12.94,0,2.05.11,3.34.32s2.63.53,4.03.95c1.4.42,2.78.93,4.15,1.54,1.37.61,2.59,1.29,3.68,2.07s1.96,1.62,2.62,2.53c.66.92,1,1.91,1,2.99,0,.74-.2,1.72-.6,2.94-.4,1.22-.95,2.56-1.64,4.03-.69,1.46-1.51,3.01-2.46,4.64-.95,1.63-1.96,3.24-3.05,4.83s-2.22,3.11-3.4,4.54c-1.18,1.44-2.36,2.71-3.53,3.81s-2.31,1.98-3.43,2.62-2.15.97-3.11.97c-.59,0-1.25-.1-1.98-.31s-1.47-.49-2.21-.86c-.74-.37-1.46-.81-2.15-1.32s-1.31-1.06-1.85-1.66c-.54-.6-.97-1.22-1.3-1.88-.33-.65-.5-1.31-.5-1.98ZM101.28,586.75l.82-.82c.68-1.13,1.34-2.23,1.96-3.28.53-.92,1.06-1.85,1.6-2.78.54-.94.95-1.71,1.25-2.31.19-.41.41-.82.64-1.22s.45-.82.64-1.25c.19-.43.36-.87.5-1.33.14-.46.21-.93.21-1.42,0-.29-.02-.52-.07-.69-.05-.17-.13-.29-.23-.37-.11-.08-.23-.12-.38-.13s-.32-.01-.51-.01-.56.01-1.1.04c-.54.03-1.15.08-1.83.15-.68.07-1.72.37-3.12.91-1.4.54-1.65,5.24-.75,14.11l.38.41Z"></path>
    <path class="cls-1" d="M128.82,604.33v-1.58c0-1,.15-1.98.44-2.94s.62-1.92.97-2.87.67-1.9.97-2.86.44-1.93.44-2.93c0-.8-.22-1.7-.66-2.7s-1.02-2.04-1.73-3.13c-.71-1.09-1.5-2.22-2.37-3.37-.87-1.15-1.73-2.28-2.59-3.37-.86-1.09-1.67-2.14-2.42-3.13-.75-1-1.36-1.89-1.83-2.7v-.79c0-.21.03-.41.1-.57.07-.17.3-.25.69-.25,1.19,0,2.3.29,3.31.86,1.02.58,1.95,1.29,2.8,2.15s1.63,1.79,2.34,2.78c.71,1,1.37,1.92,1.98,2.78.6.86,1.17,1.58,1.68,2.15.52.58,1.01.86,1.48.86.29,0,.6-.25.92-.76s.65-1.17,1-1.99c.34-.82.71-1.76,1.1-2.81.39-1.05.81-2.13,1.25-3.24s.91-2.18,1.41-3.24,1.03-1.99,1.6-2.81c.57-.82,1.18-1.48,1.83-1.99.65-.51,1.35-.76,2.09-.76.6,0,1.2.11,1.79.34s1.14.51,1.67.86,1.01.74,1.45,1.17.81.84,1.1,1.23v.41c0,.08-.16.48-.47,1.22-.31.73-.74,1.69-1.27,2.87-.54,1.18-1.17,2.55-1.9,4.12s-1.52,3.21-2.36,4.95c-.84,1.74-1.72,3.52-2.64,5.33-.92,1.82-1.84,3.59-2.75,5.32-.92,1.73-1.82,3.35-2.7,4.88s-1.69,2.86-2.45,4c-.75,1.14-1.43,2.05-2.02,2.71-.6.66-1.07,1-1.42,1-.29,0-.57,0-.83-.01s-.51-.05-.73-.13-.44-.2-.64-.37-.41-.4-.6-.69Z"></path>
    <path class="cls-1" d="M166.61,604.33c0-3.11-.06-6.1-.18-8.98s-.32-5.73-.62-8.55-.7-5.65-1.22-8.5-1.18-5.76-1.98-8.75v-.41l.41-.79h1.2c1.54,0,2.83.12,3.85.35s1.86.56,2.5.97,1.14.9,1.48,1.46.61,1.17.81,1.82.34,1.32.44,2.04.23,1.43.41,2.14.42,1.41.72,2.09.76,1.33,1.36,1.93h.41l.41-.41c.61-1.21,1.22-2.5,1.83-3.85s1.26-2.72,1.93-4.1,1.39-2.72,2.14-4.03,1.58-2.52,2.48-3.63c.21-.2.38-.35.5-.45s.22-.19.32-.23.21-.08.32-.09.27-.01.47-.01c.61,0,1.24.1,1.89.29s1.25.47,1.8.82,1,.77,1.36,1.26.54,1.04.54,1.64c0,1.6-.26,3.2-.78,4.79s-1.14,3.17-1.88,4.75-1.48,3.13-2.24,4.67-1.4,3.07-1.9,4.57c-.2.61-.4,1.45-.62,2.52s-.45,2.29-.7,3.63-.53,2.78-.83,4.31-.63,3.04-1,4.54-.76,2.94-1.2,4.32-.92,2.59-1.45,3.63c-.53,1.04-1.11,1.88-1.74,2.5-.63.62-1.32.94-2.07.94-1.41,0-2.64-.23-3.69-.7s-1.95-1.11-2.7-1.93-1.35-1.79-1.82-2.92-.8-2.34-1-3.65Z"></path>
    <path class="cls-1" d="M188.82,600.55v-4.16c0-1.78.03-3.58.09-5.42s.18-3.68.35-5.52.42-3.69.73-5.54.72-3.66,1.23-5.43l.79-.29c.7,0,1.5.13,2.39.38s1.74.58,2.56.98,1.55.84,2.2,1.33,1.06.98,1.26,1.46v3.25c0,1.86-.14,3.62-.42,5.29s-.66,3.32-1.13,4.94-1.02,3.26-1.66,4.91-1.3,3.36-2.01,5.14c-.2.47-.48.8-.85.98s-.75.28-1.14.28c-.49,0-1-.04-1.52-.13s-1-.23-1.42-.44-.77-.47-1.04-.79-.41-.73-.41-1.22ZM192.33,567.62c.06-.64.18-1.3.35-1.96s.69-1.52,1.54-2.58,2.2-1.38,4.04-.98,3.04,1.15,3.59,2.24.88,2.11,1,3.05-.06,1.95-.53,3.05-1.05,1.96-1.76,2.61c-.2.16-.48.27-.85.34s-.75.1-1.14.1c-4.98.16-7.06-1.8-6.24-5.86Z"></path>
    <path class="cls-1" d="M216.83,603.13c0-.74.17-1.44.5-2.08s.75-1.27,1.26-1.88,1.05-1.2,1.64-1.77,1.13-1.16,1.64-1.74.93-1.19,1.26-1.8.5-1.25.5-1.92c0-.2-.16-.39-.47-.59s-.71-.39-1.2-.57-1.02-.35-1.58-.5-1.1-.28-1.6-.4-.93-.21-1.29-.26-.58-.09-.66-.09c-.39,0-.7.2-.92.59s-.4.9-.53,1.54-.22,1.36-.29,2.17-.15,1.64-.25,2.49-.23,1.68-.41,2.5-.42,1.55-.75,2.18-.74,1.15-1.26,1.54-1.18.59-1.98.59c-1,0-1.83-.16-2.49-.47s-1.21-.73-1.63-1.25-.73-1.12-.94-1.82-.35-1.43-.42-2.2-.12-1.56-.12-2.36v-6.17c0-1.16.01-2.33.04-3.5s.07-2.41.12-3.72.12-2.81.22-4.51l.41-.41c.1,0,.24-.02.42-.06s.38-.08.59-.13.4-.09.57-.13.31-.06.41-.06c-.14-.08-.37-.19-.69-.34s-.69-.32-1.11-.53-.85-.43-1.3-.69-.85-.52-1.22-.79-.66-.55-.91-.83-.37-.56-.37-.83c0-.74.27-1.45.82-2.12s1.25-1.31,2.12-1.9,1.86-1.14,2.96-1.63,2.2-.9,3.3-1.25,2.13-.61,3.12-.81,1.81-.29,2.48-.29c.61,0,1.38.07,2.33.21s1.95.35,3.02.63,2.13.64,3.21,1.07,2.05.94,2.92,1.54,1.58,1.27,2.12,2.02.82,1.6.82,2.53c0,.8-.17,1.58-.5,2.34s-.7,1.51-1.1,2.26-.77,1.49-1.1,2.26-.5,1.54-.5,2.34c0,.47.25.87.75,1.2s1.11.64,1.85.94,1.53.59,2.4.88,1.67.62,2.4,1,1.35.82,1.85,1.33.75,1.14.75,1.86c0,.86-.22,1.77-.66,2.72s-1.02,1.92-1.73,2.9-1.51,1.93-2.4,2.87-1.78,1.83-2.67,2.67-1.74,1.61-2.55,2.3-1.48,1.27-2.01,1.74c-.49.39-.92.69-1.29.91s-.72.37-1.04.47-.64.16-.97.18-.69.03-1.1.03-.86-.03-1.42-.09-1.08-.18-1.58-.35-.92-.42-1.27-.73-.53-.72-.53-1.23ZM208.83,576.73c0,.06.14.19.42.4s.64.44,1.07.72.9.56,1.41.85,1,.56,1.48.81.9.44,1.27.6.62.23.76.23c.27,0,.55-.16.82-.48s.55-.74.82-1.25.53-1.08.76-1.71.44-1.26.62-1.88.32-1.2.42-1.74.16-.99.16-1.32c0-.21-.08-.34-.25-.37s-.36-.04-.57-.04c-.9,0-1.73.21-2.5.64s-1.52.93-2.24,1.49-1.45,1.14-2.17,1.73-1.48,1.03-2.29,1.32Z"></path>
    <path class="cls-1" d="M235.49,589.94v-.41l.41-.38c1.6-.1,2.9-.44,3.88-1.03s1.75-1.37,2.3-2.34.92-2.13,1.11-3.46.29-2.79.29-4.39v-1.99c-.2-.27-.52-.53-.98-.78s-.97-.49-1.52-.75-1.14-.51-1.74-.78-1.15-.54-1.64-.83-.89-.61-1.22-.95-.48-.71-.48-1.1c0-.41.29-.8.86-1.17s1.31-.72,2.2-1.05,1.87-.64,2.93-.94,2.08-.55,3.06-.76,1.85-.4,2.61-.56,1.27-.26,1.52-.32c.2-.08.58-.17,1.16-.28s1.25-.22,2.02-.35,1.58-.26,2.43-.4,1.66-.27,2.43-.4,1.45-.24,2.02-.35.96-.19,1.16-.25c.1,0,.34-.04.73-.12s.81-.17,1.26-.28.87-.2,1.26-.28.63-.12.73-.12h.41c.29,0,.59.07.88.22s.55.34.78.59.41.54.54.88.21.72.21,1.13c0,.66-.22,1.24-.66,1.71s-1.01.9-1.7,1.26-1.46.68-2.3.97-1.66.55-2.46.79-1.53.5-2.2.76-1.16.56-1.49.89c-.2.2-.41.6-.64,1.2s-.47,1.32-.72,2.14-.47,1.71-.69,2.67-.41,1.89-.59,2.8-.31,1.75-.41,2.53-.15,1.41-.15,1.88c.8,0,1.58-.15,2.34-.44s1.51-.62,2.26-.97,1.49-.67,2.26-.97,1.54-.44,2.34-.44c.41,0,.76.13,1.05.4s.54.58.75.95.36.77.45,1.19.15.78.15,1.07c0,1.05-.35,1.97-1.04,2.75s-1.56,1.46-2.59,2.02-2.16,1.05-3.37,1.46-2.33.78-3.37,1.11-1.9.64-2.59.92-1.04.59-1.04.92v4.39c0,.2.04.35.13.47s.2.2.32.25.26.08.4.09.25.01.35.01c.8,0,1.57-.13,2.31-.38s1.46-.58,2.17-.97,1.4-.81,2.08-1.26,1.36-.87,2.04-1.26,1.36-.71,2.05-.97,1.41-.38,2.15-.38c.51,0,.96.13,1.35.4s.72.6,1,1,.48.83.63,1.3.22.91.22,1.32v1.2c-.7.8-1.46,1.56-2.26,2.29s-1.66,1.36-2.58,1.9-1.9.98-2.96,1.3-2.19.48-3.4.48c-.86,0-1.79-.11-2.78-.32s-2-.52-3.02-.91-2-.86-2.96-1.42-1.84-1.17-2.65-1.85-1.51-1.41-2.11-2.21-1.02-1.63-1.27-2.49c-.33-1.07-.66-1.9-.98-2.48s-.64-1.03-.95-1.35-.63-.56-.97-.72-.68-.34-1.04-.54-.75-.49-1.16-.86-.85-.92-1.32-1.64Z"></path>
    <path class="cls-1" d="M277.62,603.95c0-.2.31-.45.92-.76s1.38-.68,2.3-1.11,1.91-.92,2.97-1.48,2.06-1.17,2.97-1.85,1.68-1.41,2.3-2.21.92-1.67.92-2.61c-.7,0-1.38.04-2.04.13s-1.3.18-1.95.28-1.3.19-1.96.28-1.35.13-2.05.13-1.58-.04-2.58-.12-2.03-.21-3.11-.41-2.13-.45-3.16-.78-1.96-.74-2.78-1.25-1.48-1.11-1.99-1.8-.76-1.51-.76-2.45.21-2.03.64-3.22,1.03-2.44,1.79-3.75,1.65-2.64,2.67-3.98,2.11-2.65,3.3-3.91,2.41-2.45,3.68-3.56,2.53-2.08,3.79-2.92,2.48-1.48,3.66-1.96,2.27-.72,3.27-.72c.41,0,.96.04,1.64.13s1.43.22,2.23.41,1.61.42,2.43.7,1.57.62,2.24,1.01,1.22.83,1.64,1.32.63,1.04.63,1.64c0,.29-.07.76-.22,1.39s-.35,1.36-.6,2.18-.55,1.71-.89,2.67-.72,1.91-1.14,2.86-.86,1.86-1.32,2.74-.93,1.66-1.41,2.34-.96,1.23-1.44,1.63-.94.6-1.39.6c-.33,0-.76-.04-1.29-.13s-1.08-.21-1.67-.38-1.18-.37-1.79-.6-1.15-.5-1.63-.79-.87-.62-1.17-.97-.45-.73-.45-1.14v-.38l2.4-5.21v-1.2c-.61.33-1.27.82-1.99,1.45s-1.46,1.37-2.2,2.2-1.46,1.73-2.15,2.7-1.31,1.94-1.86,2.93-.98,1.95-1.3,2.9-.48,1.82-.48,2.62c0,.21.08.34.23.37s.34.04.56.04c1,0,1.99-.1,2.99-.31s2-.43,3-.69,2.01-.48,3-.69,1.99-.31,2.99-.31c.47,0,1.11.03,1.92.1s1.69.19,2.65.35,1.92.38,2.89.64,1.85.59,2.65.97,1.45.83,1.95,1.35.75,1.11.75,1.77c0,.94-.27,1.9-.82,2.9s-1.27,1.97-2.18,2.92-1.94,1.85-3.09,2.7-2.33,1.59-3.54,2.23-2.4,1.14-3.57,1.51-2.23.56-3.16.56c-.14,0-.45,0-.94-.01s-1.06-.03-1.71-.06-1.34-.09-2.07-.18-1.39-.21-1.99-.35-1.11-.33-1.51-.56-.6-.5-.6-.83Z"></path>
  </g>
  <path class="cls-2" d="M130.99,53.56c-1.33-19.29,7.64-33.02,10.36-36.89C137.93,13.19,123.74-.47,103.75.1c-27.89.79-51.56,28.85-49.91,55.49,1.11,17.81,13.55,35.26,28.42,42.29,11.28,5.34,18.94,2.32,27.07,10.32,10.34,10.18,6.83,23.82,12.69,25,7.18,1.45,17.4-17.97,21.48-27.54,2.46-5.77,3.94-10.93,4.87-14.92-3.15-3.04-15.93-16.08-17.39-37.19ZM110.33,27.66c5.5,0,9.96,4.41,9.96,9.84s-4.46,9.84-9.96,9.84-9.96-4.41-9.96-9.84,4.46-9.84,9.96-9.84ZM83.4,68.71c4.34-9.07,13.66-14.64,23.42-14.05,8.78.53,16.65,5.94,20.5,14.05h-43.92Z"></path>
  <path class="cls-1" d="M218.29,10.84c-2.41-1.91-16.01-12.33-35.19-10.66-18.93,1.65-38.16,14.64-44.32,35.87-5.53,19.06.9,39.81,16.34,52.65-.51,4.45-1.13,10.06-1.79,16.54-1.81,17.6-1.69,19.73-.25,20.64,3.21,2.03,9.18-4.49,28.51-16.07,3.73-2.23,6.8-3.96,8.68-5.01,24.89-4.74,43.71-23.72,46.81-46.42,2.27-16.63-3.84-35.69-18.78-47.54ZM182.31,27.55c5.31,0,9.61,4.28,9.61,9.56s-4.3,9.56-9.61,9.56-9.61-4.28-9.61-9.56,4.3-9.56,9.61-9.56ZM163.89,68.71c3.94-8.85,12.8-14.51,22.41-14.33,9.29.17,17.7,5.78,21.51,14.33h-43.92Z"></path>
  <path class="cls-2" d="M133.42,310.35c-1.33-19.29,7.64-33.02,10.36-36.89-3.42-3.48-17.61-17.14-37.6-16.57-27.89.79-51.56,28.85-49.91,55.49,1.11,17.81,13.55,35.26,28.42,42.29,11.28,5.34,18.94,2.32,27.07,10.32,10.34,10.18,6.83,23.82,12.69,25,7.18,1.45,17.4-17.97,21.48-27.54,2.46-5.77,3.94-10.93,4.87-14.92-3.15-3.04-15.93-16.08-17.39-37.19ZM112.77,284.46c5.5,0,9.96,4.41,9.96,9.84s-4.46,9.84-9.96,9.84-9.96-4.41-9.96-9.84,4.46-9.84,9.96-9.84ZM85.84,325.5c4.34-9.07,13.66-14.64,23.42-14.05,8.78.53,16.65,5.94,20.5,14.05h-43.92Z"></path>
  <path class="cls-1" d="M220.72,267.64c-2.41-1.91-16.01-12.33-35.19-10.66-18.93,1.65-38.16,14.64-44.32,35.87-5.53,19.06.9,39.81,16.34,52.65-.51,4.45-1.13,10.06-1.79,16.54-1.81,17.6-1.69,19.73-.25,20.64,3.21,2.03,9.18-4.49,28.51-16.07,3.73-2.23,6.8-3.96,8.68-5.01,24.89-4.74,43.71-23.72,46.81-46.42,2.27-16.63-3.84-35.69-18.78-47.54ZM184.75,284.35c5.31,0,9.61,4.28,9.61,9.56s-4.3,9.56-9.61,9.56-9.61-4.28-9.61-9.56,4.3-9.56,9.61-9.56ZM166.32,325.5c3.94-8.85,12.8-14.51,22.41-14.33,9.29.17,17.7,5.78,21.51,14.33h-43.92Z"></path>
</svg>